<svg width="32" height="32" viewBox="0 0 32 32" fill="none" xmlns="http://www.w3.org/2000/svg">
<path fill-rule="evenodd" clip-rule="evenodd" d="M22.8268 15.6261C22.1895 15.6261 21.6722 15.1075 21.6722 14.4715C21.6722 13.8341 22.1895 13.3168 22.8268 13.3168C23.4642 13.3168 23.9815 13.8341 23.9815 14.4715C23.9815 15.1075 23.4642 15.6261 22.8268 15.6261ZM20.5482 19.4661C19.9108 19.4661 19.3935 18.9475 19.3935 18.3101C19.3935 17.6741 19.9108 17.1555 20.5482 17.1555C21.1855 17.1555 21.7028 17.6741 21.7028 18.3101C21.7028 18.9475 21.1855 19.4661 20.5482 19.4661ZM19.7642 24.2115H12.2375C11.6855 24.2115 11.2375 23.7635 11.2375 23.2115C11.2375 22.6595 11.6855 22.2115 12.2375 22.2115H19.7642C20.3162 22.2115 20.7642 22.6595 20.7642 23.2115C20.7642 23.7635 20.3162 24.2115 19.7642 24.2115ZM10.2842 18.3101C10.2842 17.6741 10.8015 17.1555 11.4389 17.1555C12.0762 17.1555 12.5935 17.6741 12.5935 18.3101C12.5935 18.9475 12.0762 19.4661 11.4389 19.4661C10.8015 19.4661 10.2842 18.9475 10.2842 18.3101ZM9.16021 15.6261C8.52288 15.6261 8.00555 15.1075 8.00555 14.4715C8.00555 13.8341 8.52288 13.3168 9.16021 13.3168C9.79755 13.3168 10.3149 13.8341 10.3149 14.4715C10.3149 15.1075 9.79755 15.6261 9.16021 15.6261ZM13.7175 13.3168C14.3548 13.3168 14.8722 13.8341 14.8722 14.4715C14.8722 15.1075 14.3548 15.6261 13.7175 15.6261C13.0802 15.6261 12.5629 15.1075 12.5629 14.4715C12.5629 13.8341 13.0802 13.3168 13.7175 13.3168ZM15.9935 17.1555C16.6308 17.1555 17.1482 17.6741 17.1482 18.3101C17.1482 18.9475 16.6308 19.4661 15.9935 19.4661C15.3562 19.4661 14.8388 18.9475 14.8388 18.3101C14.8388 17.6741 15.3562 17.1555 15.9935 17.1555ZM18.2695 13.3168C18.9068 13.3168 19.4242 13.8341 19.4242 14.4715C19.4242 15.1075 18.9068 15.6261 18.2695 15.6261C17.6322 15.6261 17.1148 15.1075 17.1148 14.4715C17.1148 13.8341 17.6322 13.3168 18.2695 13.3168ZM21.6388 8.54615H17.1922V8.36082C17.1642 6.40482 15.5575 4.82349 13.6135 4.82349H12.2695C11.9042 4.82349 11.6042 4.52882 11.6015 4.16349C11.5962 3.61149 11.1322 3.15949 10.5922 3.17282C10.0402 3.17815 9.59621 3.63015 9.60155 4.18215C9.61621 5.64482 10.8095 6.82349 12.2589 6.82349H13.5935C14.4028 6.80215 15.1802 7.51948 15.1922 8.37548V8.54615H10.3615C5.96155 8.54615 3.33355 11.1248 3.33355 15.4435V21.9408C3.32688 24.0248 3.95222 25.7581 5.14155 26.9515C6.36555 28.1795 8.16555 28.8275 10.3495 28.8275H21.6388C26.0388 28.8275 28.6668 26.2541 28.6668 21.9435V15.5448C28.6668 11.1622 26.0388 8.54615 21.6388 8.54615Z" fill="url(#paint0_linear_263_605)"/>
<defs>
<linearGradient id="paint0_linear_263_605" x1="5.50021" y1="7.00001" x2="32.5002" y2="38.5" gradientUnits="userSpaceOnUse">
<stop stop-color="#4CA6FF"/>
<stop offset="1" stop-color="#F4DC73"/>
</linearGradient>
</defs>
</svg>
