<svg width="267" height="40" viewBox="0 0 267 40" fill="none" xmlns="http://www.w3.org/2000/svg">
<path fill-rule="evenodd" clip-rule="evenodd" d="M22.8266 15.6261C22.1893 15.6261 21.672 15.1075 21.672 14.4715C21.672 13.8341 22.1893 13.3168 22.8266 13.3168C23.464 13.3168 23.9813 13.8341 23.9813 14.4715C23.9813 15.1075 23.464 15.6261 22.8266 15.6261ZM20.548 19.4661C19.9106 19.4661 19.3933 18.9475 19.3933 18.3101C19.3933 17.6741 19.9106 17.1555 20.548 17.1555C21.1853 17.1555 21.7026 17.6741 21.7026 18.3101C21.7026 18.9475 21.1853 19.4661 20.548 19.4661ZM19.764 24.2115H12.2373C11.6853 24.2115 11.2373 23.7635 11.2373 23.2115C11.2373 22.6595 11.6853 22.2115 12.2373 22.2115H19.764C20.316 22.2115 20.764 22.6595 20.764 23.2115C20.764 23.7635 20.316 24.2115 19.764 24.2115ZM10.284 18.3101C10.284 17.6741 10.8013 17.1555 11.4387 17.1555C12.076 17.1555 12.5933 17.6741 12.5933 18.3101C12.5933 18.9475 12.076 19.4661 11.4387 19.4661C10.8013 19.4661 10.284 18.9475 10.284 18.3101ZM9.16001 15.6261C8.52268 15.6261 8.00534 15.1075 8.00534 14.4715C8.00534 13.8341 8.52268 13.3168 9.16001 13.3168C9.79734 13.3168 10.3147 13.8341 10.3147 14.4715C10.3147 15.1075 9.79734 15.6261 9.16001 15.6261ZM13.7173 13.3168C14.3546 13.3168 14.872 13.8341 14.872 14.4715C14.872 15.1075 14.3546 15.6261 13.7173 15.6261C13.08 15.6261 12.5627 15.1075 12.5627 14.4715C12.5627 13.8341 13.08 13.3168 13.7173 13.3168ZM15.9933 17.1555C16.6306 17.1555 17.148 17.6741 17.148 18.3101C17.148 18.9475 16.6306 19.4661 15.9933 19.4661C15.356 19.4661 14.8386 18.9475 14.8386 18.3101C14.8386 17.6741 15.356 17.1555 15.9933 17.1555ZM18.2693 13.3168C18.9066 13.3168 19.424 13.8341 19.424 14.4715C19.424 15.1075 18.9066 15.6261 18.2693 15.6261C17.632 15.6261 17.1146 15.1075 17.1146 14.4715C17.1146 13.8341 17.632 13.3168 18.2693 13.3168ZM21.6386 8.54615H17.192V8.36082C17.164 6.40482 15.5573 4.82349 13.6133 4.82349H12.2693C11.904 4.82349 11.604 4.52882 11.6013 4.16349C11.596 3.61149 11.132 3.15949 10.592 3.17282C10.04 3.17815 9.59601 3.63015 9.60134 4.18215C9.61601 5.64482 10.8093 6.82349 12.2587 6.82349H13.5933C14.4026 6.80215 15.18 7.51948 15.192 8.37548V8.54615H10.3613C5.96134 8.54615 3.33334 11.1248 3.33334 15.4435V21.9408C3.32668 24.0248 3.95201 25.7581 5.14134 26.9515C6.36534 28.1795 8.16534 28.8275 10.3493 28.8275H21.6386C26.0386 28.8275 28.6666 26.2541 28.6666 21.9435V15.5448C28.6666 11.1622 26.0386 8.54615 21.6386 8.54615Z" fill="url(#paint0_linear_176_904)"/>
<path d="M265.013 18.624C263.685 18.624 262.613 18.464 261.797 18.144C260.981 17.808 260.381 17.256 259.997 16.488C259.629 15.704 259.445 14.648 259.445 13.32V1.752H263.021V13.464C263.021 14.088 263.181 14.568 263.501 14.904C263.837 15.224 264.309 15.384 264.917 15.384H266.861V18.624H265.013ZM257.453 8.112V5.304H266.861V8.112H257.453Z" fill="white"/>
<path d="M250.693 18.864C248.821 18.864 247.357 18.48 246.301 17.712C245.245 16.944 244.685 15.864 244.621 14.472H248.029C248.093 14.888 248.341 15.264 248.773 15.6C249.221 15.92 249.885 16.08 250.765 16.08C251.437 16.08 251.989 15.968 252.421 15.744C252.869 15.504 253.093 15.168 253.093 14.736C253.093 14.352 252.925 14.048 252.589 13.824C252.253 13.584 251.653 13.416 250.789 13.32L249.757 13.224C248.173 13.064 246.981 12.624 246.181 11.904C245.397 11.184 245.005 10.264 245.005 9.144C245.005 8.216 245.237 7.44 245.701 6.816C246.165 6.192 246.805 5.72 247.621 5.4C248.453 5.08 249.397 4.92 250.453 4.92C252.149 4.92 253.517 5.296 254.557 6.048C255.597 6.784 256.141 7.856 256.189 9.264H252.781C252.717 8.832 252.493 8.472 252.109 8.184C251.725 7.88 251.157 7.728 250.405 7.728C249.813 7.728 249.341 7.84 248.989 8.064C248.637 8.288 248.461 8.592 248.461 8.976C248.461 9.344 248.613 9.624 248.917 9.816C249.221 10.008 249.717 10.144 250.405 10.224L251.437 10.32C253.053 10.496 254.309 10.944 255.205 11.664C256.101 12.384 256.549 13.352 256.549 14.568C256.549 15.448 256.309 16.216 255.829 16.872C255.349 17.512 254.669 18.008 253.789 18.36C252.909 18.696 251.877 18.864 250.693 18.864Z" fill="white"/>
<path d="M236.748 18.912C235.628 18.912 234.636 18.72 233.772 18.336C232.924 17.952 232.212 17.44 231.636 16.8C231.076 16.144 230.644 15.416 230.34 14.616C230.052 13.8 229.908 12.968 229.908 12.12V11.64C229.908 10.76 230.052 9.92 230.34 9.12C230.644 8.304 231.076 7.576 231.636 6.936C232.196 6.296 232.892 5.792 233.724 5.424C234.572 5.04 235.532 4.848 236.604 4.848C238.012 4.848 239.196 5.168 240.156 5.808C241.132 6.432 241.876 7.256 242.388 8.28C242.9 9.288 243.156 10.392 243.156 11.592V12.888H231.516V10.704H240.828L239.58 11.712C239.58 10.928 239.468 10.256 239.244 9.696C239.02 9.136 238.684 8.712 238.236 8.424C237.804 8.12 237.26 7.968 236.604 7.968C235.932 7.968 235.364 8.12 234.9 8.424C234.436 8.728 234.084 9.176 233.844 9.768C233.604 10.344 233.484 11.056 233.484 11.904C233.484 12.688 233.596 13.376 233.82 13.968C234.044 14.544 234.396 14.992 234.876 15.312C235.356 15.632 235.98 15.792 236.748 15.792C237.452 15.792 238.028 15.656 238.476 15.384C238.924 15.112 239.228 14.776 239.388 14.376H242.916C242.724 15.256 242.348 16.04 241.788 16.728C241.228 17.416 240.524 17.952 239.676 18.336C238.828 18.72 237.852 18.912 236.748 18.912Z" fill="white"/>
<path d="M221.248 18.456V3.888H225.184V18.456H221.248ZM216.328 4.368V0.936001H230.128V4.368H216.328Z" fill="white"/>
<path d="M201.062 18.888C200.134 18.888 199.286 18.72 198.518 18.384C197.766 18.048 197.11 17.584 196.55 16.992C195.99 16.384 195.558 15.672 195.254 14.856C194.966 14.04 194.822 13.16 194.822 12.216V11.664C194.822 10.72 194.958 9.84 195.23 9.024C195.518 8.208 195.926 7.496 196.454 6.888C196.998 6.264 197.646 5.784 198.398 5.448C199.15 5.096 199.99 4.92 200.918 4.92C201.974 4.92 202.886 5.152 203.654 5.616C204.422 6.064 205.022 6.736 205.454 7.632C205.886 8.512 206.126 9.6 206.174 10.896L205.166 9.96V0.936001H209.03V18.456H205.982V13.008H206.51C206.462 14.256 206.198 15.32 205.718 16.2C205.254 17.08 204.622 17.752 203.822 18.216C203.022 18.664 202.102 18.888 201.062 18.888ZM202.022 15.672C202.614 15.672 203.15 15.544 203.63 15.288C204.126 15.016 204.518 14.624 204.806 14.112C205.11 13.6 205.262 12.984 205.262 12.264V11.376C205.262 10.672 205.11 10.08 204.806 9.6C204.502 9.12 204.102 8.752 203.606 8.496C203.11 8.24 202.574 8.112 201.998 8.112C201.358 8.112 200.782 8.28 200.27 8.616C199.774 8.936 199.382 9.384 199.094 9.96C198.806 10.52 198.662 11.176 198.662 11.928C198.662 12.696 198.806 13.36 199.094 13.92C199.382 14.48 199.782 14.912 200.294 15.216C200.806 15.52 201.382 15.672 202.022 15.672Z" fill="white"/>
<path d="M186.686 18.912C185.566 18.912 184.574 18.72 183.71 18.336C182.862 17.952 182.15 17.44 181.574 16.8C181.014 16.144 180.582 15.416 180.278 14.616C179.99 13.8 179.846 12.968 179.846 12.12V11.64C179.846 10.76 179.99 9.92 180.278 9.12C180.582 8.304 181.014 7.576 181.574 6.936C182.134 6.296 182.83 5.792 183.662 5.424C184.51 5.04 185.47 4.848 186.542 4.848C187.95 4.848 189.134 5.168 190.094 5.808C191.07 6.432 191.814 7.256 192.326 8.28C192.838 9.288 193.094 10.392 193.094 11.592V12.888H181.454V10.704H190.766L189.518 11.712C189.518 10.928 189.406 10.256 189.182 9.696C188.958 9.136 188.622 8.712 188.174 8.424C187.742 8.12 187.198 7.968 186.542 7.968C185.87 7.968 185.302 8.12 184.838 8.424C184.374 8.728 184.022 9.176 183.782 9.768C183.542 10.344 183.422 11.056 183.422 11.904C183.422 12.688 183.534 13.376 183.758 13.968C183.982 14.544 184.334 14.992 184.814 15.312C185.294 15.632 185.918 15.792 186.686 15.792C187.39 15.792 187.966 15.656 188.414 15.384C188.862 15.112 189.166 14.776 189.326 14.376H192.854C192.662 15.256 192.286 16.04 191.726 16.728C191.166 17.416 190.462 17.952 189.614 18.336C188.766 18.72 187.79 18.912 186.686 18.912Z" fill="white"/>
<path d="M171.709 18.912C170.589 18.912 169.597 18.72 168.733 18.336C167.885 17.952 167.173 17.44 166.597 16.8C166.037 16.144 165.605 15.416 165.301 14.616C165.013 13.8 164.869 12.968 164.869 12.12V11.64C164.869 10.76 165.013 9.92 165.301 9.12C165.605 8.304 166.037 7.576 166.597 6.936C167.157 6.296 167.853 5.792 168.685 5.424C169.533 5.04 170.493 4.848 171.565 4.848C172.973 4.848 174.157 5.168 175.117 5.808C176.093 6.432 176.837 7.256 177.349 8.28C177.861 9.288 178.117 10.392 178.117 11.592V12.888H166.477V10.704H175.789L174.541 11.712C174.541 10.928 174.429 10.256 174.205 9.696C173.981 9.136 173.645 8.712 173.197 8.424C172.765 8.12 172.221 7.968 171.565 7.968C170.893 7.968 170.325 8.12 169.861 8.424C169.397 8.728 169.045 9.176 168.805 9.768C168.565 10.344 168.445 11.056 168.445 11.904C168.445 12.688 168.557 13.376 168.781 13.968C169.005 14.544 169.357 14.992 169.837 15.312C170.317 15.632 170.941 15.792 171.709 15.792C172.413 15.792 172.989 15.656 173.437 15.384C173.885 15.112 174.189 14.776 174.349 14.376H177.877C177.685 15.256 177.309 16.04 176.749 16.728C176.189 17.416 175.485 17.952 174.637 18.336C173.789 18.72 172.813 18.912 171.709 18.912Z" fill="white"/>
<path d="M148.81 23.256V5.304H151.858V10.992L151.45 10.968C151.514 9.656 151.786 8.552 152.266 7.656C152.746 6.744 153.394 6.064 154.21 5.616C155.026 5.152 155.946 4.92 156.97 4.92C157.882 4.92 158.706 5.088 159.442 5.424C160.194 5.76 160.834 6.232 161.362 6.84C161.906 7.432 162.314 8.136 162.586 8.952C162.874 9.752 163.018 10.632 163.018 11.592V12.144C163.018 13.088 162.882 13.976 162.61 14.808C162.338 15.624 161.938 16.336 161.41 16.944C160.898 17.552 160.266 18.032 159.514 18.384C158.778 18.72 157.93 18.888 156.97 18.888C155.978 18.888 155.082 18.688 154.282 18.288C153.498 17.872 152.866 17.248 152.386 16.416C151.906 15.568 151.642 14.496 151.594 13.2L152.65 14.64V23.256H148.81ZM155.89 15.672C156.546 15.672 157.114 15.512 157.594 15.192C158.09 14.872 158.474 14.424 158.746 13.848C159.018 13.272 159.154 12.608 159.154 11.856C159.154 11.104 159.018 10.448 158.746 9.888C158.474 9.328 158.098 8.896 157.618 8.592C157.138 8.272 156.562 8.112 155.89 8.112C155.314 8.112 154.77 8.248 154.258 8.52C153.746 8.792 153.33 9.184 153.01 9.696C152.706 10.192 152.554 10.8 152.554 11.52V12.408C152.554 13.096 152.714 13.688 153.034 14.184C153.37 14.664 153.794 15.032 154.306 15.288C154.818 15.544 155.346 15.672 155.89 15.672Z" fill="white"/>
<path d="M139.114 18.912C137.53 18.912 136.194 18.664 135.106 18.168C134.018 17.656 133.194 16.968 132.634 16.104C132.074 15.224 131.794 14.216 131.794 13.08H135.61C135.61 13.528 135.73 13.944 135.97 14.328C136.226 14.712 136.61 15.024 137.122 15.264C137.634 15.488 138.298 15.6 139.114 15.6C139.85 15.6 140.466 15.504 140.962 15.312C141.458 15.12 141.834 14.856 142.09 14.52C142.346 14.168 142.474 13.768 142.474 13.32C142.474 12.76 142.234 12.32 141.754 12C141.274 11.664 140.498 11.448 139.426 11.352L138.106 11.232C136.362 11.088 134.97 10.544 133.93 9.6C132.89 8.656 132.37 7.408 132.37 5.856C132.37 4.736 132.634 3.768 133.162 2.952C133.706 2.136 134.458 1.512 135.418 1.08C136.378 0.632001 137.514 0.408001 138.826 0.408001C140.202 0.408001 141.378 0.648001 142.354 1.128C143.346 1.592 144.106 2.256 144.634 3.12C145.162 3.968 145.426 4.968 145.426 6.12H141.586C141.586 5.688 141.482 5.296 141.274 4.944C141.066 4.576 140.754 4.28 140.338 4.056C139.938 3.832 139.434 3.72 138.826 3.72C138.25 3.72 137.762 3.816 137.362 4.008C136.978 4.2 136.69 4.464 136.498 4.8C136.306 5.12 136.21 5.472 136.21 5.856C136.21 6.352 136.386 6.784 136.738 7.152C137.09 7.52 137.666 7.736 138.466 7.8L139.81 7.92C141.09 8.032 142.218 8.312 143.194 8.76C144.17 9.192 144.93 9.792 145.474 10.56C146.034 11.312 146.314 12.232 146.314 13.32C146.314 14.44 146.018 15.424 145.426 16.272C144.85 17.104 144.026 17.752 142.954 18.216C141.882 18.68 140.602 18.912 139.114 18.912Z" fill="white"/>
<path d="M116.494 23.688C115.854 23.688 115.198 23.664 114.526 23.616C113.854 23.568 113.238 23.504 112.678 23.424V20.184C113.238 20.264 113.854 20.328 114.526 20.376C115.214 20.44 115.838 20.472 116.398 20.472C117.438 20.472 118.278 20.352 118.918 20.112C119.574 19.872 120.054 19.504 120.358 19.008C120.662 18.528 120.814 17.904 120.814 17.136V14.52L121.51 12.984C121.478 14.152 121.246 15.152 120.814 15.984C120.398 16.816 119.814 17.456 119.062 17.904C118.31 18.336 117.414 18.552 116.374 18.552C115.478 18.552 114.662 18.392 113.926 18.072C113.206 17.736 112.59 17.272 112.078 16.68C111.566 16.088 111.174 15.4 110.902 14.616C110.63 13.816 110.494 12.952 110.494 12.024V11.472C110.494 10.544 110.638 9.68 110.926 8.88C111.214 8.08 111.63 7.384 112.174 6.792C112.718 6.2 113.366 5.744 114.118 5.424C114.87 5.088 115.702 4.92 116.614 4.92C117.67 4.92 118.582 5.152 119.35 5.616C120.134 6.08 120.75 6.76 121.198 7.656C121.646 8.552 121.886 9.632 121.918 10.896L121.39 11.04V5.304H124.438V16.896C124.438 18.512 124.15 19.816 123.574 20.808C122.998 21.8 122.118 22.528 120.934 22.992C119.766 23.456 118.286 23.688 116.494 23.688ZM117.574 15.312C118.166 15.312 118.702 15.184 119.182 14.928C119.662 14.656 120.038 14.272 120.31 13.776C120.598 13.28 120.742 12.68 120.742 11.976V11.28C120.742 10.592 120.59 10.016 120.286 9.552C119.998 9.072 119.614 8.712 119.134 8.472C118.654 8.216 118.142 8.088 117.598 8.088C116.958 8.088 116.39 8.24 115.894 8.544C115.398 8.848 115.014 9.272 114.742 9.816C114.47 10.36 114.334 11 114.334 11.736C114.334 12.488 114.47 13.136 114.742 13.68C115.03 14.208 115.414 14.616 115.894 14.904C116.39 15.176 116.95 15.312 117.574 15.312Z" fill="white"/>
<path d="M95.6539 18.456V5.304H98.7019V10.944H98.4859C98.4859 9.6 98.6539 8.48 98.9899 7.584C99.3419 6.688 99.8699 6.016 100.574 5.568C101.278 5.12 102.134 4.896 103.142 4.896H103.31C104.846 4.896 106.014 5.4 106.814 6.408C107.63 7.4 108.038 8.912 108.038 10.944V18.456H104.198V10.728C104.198 10.024 103.99 9.448 103.574 9C103.158 8.552 102.598 8.328 101.894 8.328C101.174 8.328 100.59 8.56 100.142 9.024C99.7099 9.472 99.4939 10.064 99.4939 10.8V18.456H95.6539Z" fill="white"/>
<path d="M88.2622 18.456V5.304H92.1022V18.456H88.2622ZM86.5102 8.136V5.304H92.1022V8.136H86.5102ZM89.7502 4.008C89.0302 4.008 88.4942 3.824 88.1422 3.456C87.8062 3.072 87.6382 2.592 87.6382 2.016C87.6382 1.424 87.8062 0.944 88.1422 0.576C88.4942 0.192 89.0302 0 89.7502 0C90.4702 0 90.9982 0.192 91.3342 0.576C91.6862 0.944 91.8622 1.424 91.8622 2.016C91.8622 2.592 91.6862 3.072 91.3342 3.456C90.9982 3.824 90.4702 4.008 89.7502 4.008Z" fill="white"/>
<path d="M70.7632 23.256V5.304H73.8112V10.992L73.4032 10.968C73.4672 9.656 73.7392 8.552 74.2192 7.656C74.6992 6.744 75.3472 6.064 76.1632 5.616C76.9792 5.152 77.8992 4.92 78.9232 4.92C79.8352 4.92 80.6592 5.088 81.3952 5.424C82.1472 5.76 82.7872 6.232 83.3152 6.84C83.8592 7.432 84.2672 8.136 84.5392 8.952C84.8272 9.752 84.9712 10.632 84.9712 11.592V12.144C84.9712 13.088 84.8352 13.976 84.5632 14.808C84.2912 15.624 83.8912 16.336 83.3632 16.944C82.8512 17.552 82.2192 18.032 81.4672 18.384C80.7312 18.72 79.8832 18.888 78.9232 18.888C77.9312 18.888 77.0352 18.688 76.2352 18.288C75.4512 17.872 74.8192 17.248 74.3392 16.416C73.8592 15.568 73.5952 14.496 73.5472 13.2L74.6032 14.64V23.256H70.7632ZM77.8432 15.672C78.4992 15.672 79.0672 15.512 79.5472 15.192C80.0432 14.872 80.4272 14.424 80.6992 13.848C80.9712 13.272 81.1072 12.608 81.1072 11.856C81.1072 11.104 80.9712 10.448 80.6992 9.888C80.4272 9.328 80.0512 8.896 79.5712 8.592C79.0912 8.272 78.5152 8.112 77.8432 8.112C77.2672 8.112 76.7232 8.248 76.2112 8.52C75.6992 8.792 75.2832 9.184 74.9632 9.696C74.6592 10.192 74.5072 10.8 74.5072 11.52V12.408C74.5072 13.096 74.6672 13.688 74.9872 14.184C75.3232 14.664 75.7472 15.032 76.2592 15.288C76.7712 15.544 77.2992 15.672 77.8432 15.672Z" fill="white"/>
<path d="M56.9317 23.664V20.4H59.6677C60.0837 20.4 60.4357 20.344 60.7237 20.232C61.0117 20.136 61.2437 19.968 61.4197 19.728C61.5957 19.488 61.7397 19.16 61.8517 18.744L65.0917 5.304H68.7397L65.0677 19.512C64.8117 20.536 64.4517 21.352 63.9877 21.96C63.5397 22.568 62.9317 23 62.1637 23.256C61.4117 23.528 60.4517 23.664 59.2837 23.664H56.9317ZM61.0597 18.168V15.168H63.8437V18.168H61.0597ZM59.4757 18.168L55.4437 5.304H59.3077L63.1237 18.168H59.4757Z" fill="white"/>
<path d="M46.9202 18.456V3.888H50.8562V18.456H46.9202ZM42.0002 4.368V0.936001H55.8002V4.368H42.0002Z" fill="white"/>
<path d="M262.392 36.88C261.552 36.88 260.9 36.7 260.436 36.34C259.98 35.98 259.744 35.488 259.728 34.864H260.808C260.824 35.112 260.948 35.348 261.18 35.572C261.42 35.788 261.824 35.896 262.392 35.896C262.904 35.896 263.296 35.796 263.568 35.596C263.84 35.388 263.976 35.136 263.976 34.84C263.976 34.576 263.876 34.372 263.676 34.228C263.476 34.076 263.152 33.976 262.704 33.928L262.008 33.856C261.4 33.792 260.904 33.612 260.52 33.316C260.136 33.012 259.944 32.588 259.944 32.044C259.944 31.636 260.048 31.288 260.256 31C260.464 30.704 260.752 30.48 261.12 30.328C261.488 30.168 261.912 30.088 262.392 30.088C263.112 30.088 263.696 30.248 264.144 30.568C264.592 30.888 264.824 31.364 264.84 31.996H263.76C263.752 31.74 263.632 31.524 263.4 31.348C263.176 31.164 262.84 31.072 262.392 31.072C261.944 31.072 261.604 31.164 261.372 31.348C261.14 31.532 261.024 31.764 261.024 32.044C261.024 32.284 261.104 32.476 261.264 32.62C261.432 32.764 261.704 32.856 262.08 32.896L262.776 32.968C263.464 33.04 264.016 33.232 264.432 33.544C264.848 33.848 265.056 34.28 265.056 34.84C265.056 35.24 264.94 35.596 264.708 35.908C264.484 36.212 264.172 36.452 263.772 36.628C263.372 36.796 262.912 36.88 262.392 36.88Z" fill="#949497"/>
<path d="M254.695 36.904C254.239 36.904 253.819 36.82 253.435 36.652C253.051 36.484 252.715 36.248 252.427 35.944C252.147 35.64 251.927 35.288 251.767 34.888C251.615 34.488 251.539 34.056 251.539 33.592V33.376C251.539 32.92 251.615 32.492 251.767 32.092C251.919 31.692 252.131 31.34 252.403 31.036C252.683 30.732 253.011 30.496 253.387 30.328C253.771 30.152 254.195 30.064 254.659 30.064C255.147 30.064 255.591 30.168 255.991 30.376C256.391 30.576 256.719 30.892 256.975 31.324C257.231 31.756 257.375 32.316 257.407 33.004L256.927 32.236V27.928H258.079V36.688H257.167V33.844H257.503C257.471 34.572 257.319 35.164 257.047 35.62C256.775 36.068 256.431 36.396 256.015 36.604C255.607 36.804 255.167 36.904 254.695 36.904ZM254.851 35.896C255.243 35.896 255.599 35.808 255.919 35.632C256.239 35.456 256.495 35.204 256.687 34.876C256.879 34.54 256.975 34.148 256.975 33.7V33.148C256.975 32.708 256.875 32.336 256.675 32.032C256.483 31.72 256.223 31.484 255.895 31.324C255.575 31.156 255.223 31.072 254.839 31.072C254.415 31.072 254.039 31.172 253.711 31.372C253.391 31.572 253.139 31.852 252.955 32.212C252.779 32.572 252.691 32.996 252.691 33.484C252.691 33.972 252.783 34.4 252.967 34.768C253.151 35.128 253.407 35.408 253.735 35.608C254.063 35.8 254.435 35.896 254.851 35.896Z" fill="#949497"/>
<path d="M244.343 36.688V30.28H245.255V33.028H245.111C245.111 32.396 245.195 31.864 245.363 31.432C245.539 30.992 245.803 30.66 246.155 30.436C246.507 30.204 246.951 30.088 247.487 30.088H247.535C248.343 30.088 248.939 30.34 249.323 30.844C249.715 31.348 249.911 32.076 249.911 33.028V36.688H248.759V32.788C248.759 32.292 248.619 31.896 248.339 31.6C248.059 31.296 247.675 31.144 247.187 31.144C246.683 31.144 246.275 31.3 245.963 31.612C245.651 31.924 245.495 32.34 245.495 32.86V36.688H244.343Z" fill="#949497"/>
<path d="M239.185 36.904C238.625 36.904 238.133 36.808 237.709 36.616C237.285 36.424 236.925 36.172 236.629 35.86C236.341 35.54 236.121 35.184 235.969 34.792C235.825 34.4 235.753 34 235.753 33.592V33.376C235.753 32.968 235.829 32.568 235.981 32.176C236.133 31.776 236.357 31.42 236.653 31.108C236.949 30.788 237.309 30.536 237.733 30.352C238.157 30.16 238.641 30.064 239.185 30.064C239.729 30.064 240.213 30.16 240.637 30.352C241.061 30.536 241.421 30.788 241.717 31.108C242.013 31.42 242.237 31.776 242.389 32.176C242.541 32.568 242.617 32.968 242.617 33.376V33.592C242.617 34 242.541 34.4 242.389 34.792C242.245 35.184 242.025 35.54 241.729 35.86C241.441 36.172 241.085 36.424 240.661 36.616C240.237 36.808 239.745 36.904 239.185 36.904ZM239.185 35.872C239.665 35.872 240.073 35.768 240.409 35.56C240.753 35.344 241.013 35.056 241.189 34.696C241.373 34.336 241.465 33.932 241.465 33.484C241.465 33.028 241.373 32.62 241.189 32.26C241.005 31.9 240.741 31.616 240.397 31.408C240.061 31.2 239.657 31.096 239.185 31.096C238.721 31.096 238.317 31.2 237.973 31.408C237.629 31.616 237.365 31.9 237.181 32.26C236.997 32.62 236.905 33.028 236.905 33.484C236.905 33.932 236.993 34.336 237.169 34.696C237.353 35.056 237.613 35.344 237.949 35.56C238.293 35.768 238.705 35.872 239.185 35.872Z" fill="#949497"/>
<path d="M231.704 36.904C231.152 36.904 230.672 36.808 230.264 36.616C229.864 36.424 229.532 36.168 229.268 35.848C229.004 35.52 228.804 35.16 228.668 34.768C228.54 34.376 228.476 33.984 228.476 33.592V33.376C228.476 32.968 228.54 32.568 228.668 32.176C228.804 31.784 229.004 31.432 229.268 31.12C229.54 30.8 229.876 30.544 230.276 30.352C230.676 30.16 231.144 30.064 231.68 30.064C232.216 30.064 232.696 30.164 233.12 30.364C233.552 30.564 233.896 30.848 234.152 31.216C234.416 31.576 234.564 32.004 234.596 32.5H233.492C233.436 32.1 233.252 31.768 232.94 31.504C232.628 31.232 232.208 31.096 231.68 31.096C231.224 31.096 230.844 31.2 230.54 31.408C230.236 31.616 230.008 31.9 229.856 32.26C229.704 32.62 229.628 33.028 229.628 33.484C229.628 33.924 229.704 34.328 229.856 34.696C230.008 35.056 230.236 35.344 230.54 35.56C230.852 35.768 231.24 35.872 231.704 35.872C232.064 35.872 232.376 35.808 232.64 35.68C232.904 35.552 233.116 35.38 233.276 35.164C233.436 34.948 233.532 34.704 233.564 34.432H234.668C234.644 34.936 234.496 35.372 234.224 35.74C233.96 36.108 233.608 36.396 233.168 36.604C232.736 36.804 232.248 36.904 231.704 36.904Z" fill="#949497"/>
<path d="M224.332 36.904C223.772 36.904 223.288 36.808 222.88 36.616C222.472 36.424 222.14 36.172 221.884 35.86C221.628 35.54 221.436 35.184 221.308 34.792C221.188 34.4 221.128 34 221.128 33.592V33.376C221.128 32.96 221.188 32.556 221.308 32.164C221.436 31.772 221.628 31.42 221.884 31.108C222.14 30.788 222.464 30.536 222.856 30.352C223.256 30.16 223.724 30.064 224.26 30.064C224.956 30.064 225.528 30.216 225.976 30.52C226.432 30.816 226.768 31.2 226.984 31.672C227.208 32.144 227.32 32.648 227.32 33.184V33.7H221.632V32.836H226.48L226.216 33.304C226.216 32.848 226.144 32.456 226 32.128C225.856 31.792 225.64 31.532 225.352 31.348C225.064 31.164 224.7 31.072 224.26 31.072C223.804 31.072 223.424 31.176 223.12 31.384C222.824 31.592 222.6 31.876 222.448 32.236C222.304 32.596 222.232 33.012 222.232 33.484C222.232 33.94 222.304 34.352 222.448 34.72C222.6 35.08 222.832 35.368 223.144 35.584C223.456 35.792 223.852 35.896 224.332 35.896C224.836 35.896 225.244 35.784 225.556 35.56C225.876 35.336 226.068 35.076 226.132 34.78H227.212C227.124 35.22 226.948 35.6 226.684 35.92C226.42 36.24 226.088 36.484 225.688 36.652C225.288 36.82 224.836 36.904 224.332 36.904Z" fill="#949497"/>
<path d="M217.275 36.88C216.435 36.88 215.783 36.7 215.319 36.34C214.863 35.98 214.627 35.488 214.611 34.864H215.691C215.707 35.112 215.831 35.348 216.063 35.572C216.303 35.788 216.707 35.896 217.275 35.896C217.787 35.896 218.179 35.796 218.451 35.596C218.723 35.388 218.859 35.136 218.859 34.84C218.859 34.576 218.759 34.372 218.559 34.228C218.359 34.076 218.035 33.976 217.587 33.928L216.891 33.856C216.283 33.792 215.787 33.612 215.403 33.316C215.019 33.012 214.827 32.588 214.827 32.044C214.827 31.636 214.931 31.288 215.139 31C215.347 30.704 215.635 30.48 216.003 30.328C216.371 30.168 216.795 30.088 217.275 30.088C217.995 30.088 218.579 30.248 219.027 30.568C219.475 30.888 219.707 31.364 219.723 31.996H218.643C218.635 31.74 218.515 31.524 218.283 31.348C218.059 31.164 217.723 31.072 217.275 31.072C216.827 31.072 216.487 31.164 216.255 31.348C216.023 31.532 215.907 31.764 215.907 32.044C215.907 32.284 215.987 32.476 216.147 32.62C216.315 32.764 216.587 32.856 216.963 32.896L217.659 32.968C218.347 33.04 218.899 33.232 219.315 33.544C219.731 33.848 219.939 34.28 219.939 34.84C219.939 35.24 219.823 35.596 219.591 35.908C219.367 36.212 219.055 36.452 218.655 36.628C218.255 36.796 217.795 36.88 217.275 36.88Z" fill="#949497"/>
<path d="M206.886 36.904C206.23 36.904 205.67 36.792 205.206 36.568C204.75 36.336 204.378 36.024 204.09 35.632C203.81 35.24 203.606 34.788 203.478 34.276C203.35 33.756 203.286 33.208 203.286 32.632V31.984C203.286 31.176 203.41 30.448 203.658 29.8C203.914 29.152 204.306 28.64 204.834 28.264C205.37 27.88 206.054 27.688 206.886 27.688C207.718 27.688 208.398 27.88 208.926 28.264C209.454 28.64 209.842 29.152 210.09 29.8C210.346 30.448 210.474 31.176 210.474 31.984V32.632C210.474 33.208 210.41 33.756 210.282 34.276C210.154 34.788 209.946 35.24 209.658 35.632C209.378 36.024 209.01 36.336 208.554 36.568C208.098 36.792 207.542 36.904 206.886 36.904ZM206.886 35.848C207.718 35.848 208.326 35.568 208.71 35.008C209.102 34.44 209.298 33.544 209.298 32.32C209.298 31.04 209.098 30.124 208.698 29.572C208.306 29.02 207.702 28.744 206.886 28.744C206.062 28.744 205.45 29.02 205.05 29.572C204.658 30.124 204.462 31.032 204.462 32.296C204.462 33.528 204.658 34.428 205.05 34.996C205.442 35.564 206.054 35.848 206.886 35.848Z" fill="#949497"/>
<path d="M198.7 36.928C198.06 36.928 197.524 36.816 197.092 36.592C196.668 36.368 196.328 36.064 196.072 35.68C195.824 35.288 195.644 34.84 195.532 34.336C195.428 33.832 195.376 33.304 195.376 32.752V32.176C195.376 30.792 195.72 29.728 196.408 28.984C197.096 28.232 198.092 27.856 199.396 27.856C199.708 27.856 199.972 27.864 200.188 27.88C200.404 27.896 200.64 27.92 200.896 27.952V28.936C200.632 28.904 200.388 28.88 200.164 28.864C199.94 28.848 199.668 28.84 199.348 28.84C198.62 28.84 198.044 28.976 197.62 29.248C197.196 29.52 196.892 29.912 196.708 30.424C196.524 30.928 196.432 31.54 196.432 32.26V32.8L196.144 33.868C196.152 33.236 196.272 32.712 196.504 32.296C196.744 31.88 197.068 31.568 197.476 31.36C197.892 31.152 198.368 31.048 198.904 31.048C199.528 31.048 200.056 31.176 200.488 31.432C200.92 31.68 201.244 32.024 201.46 32.464C201.684 32.904 201.796 33.404 201.796 33.964C201.796 34.532 201.68 35.04 201.448 35.488C201.216 35.936 200.868 36.288 200.404 36.544C199.948 36.8 199.38 36.928 198.7 36.928ZM198.7 35.92C199.14 35.92 199.508 35.836 199.804 35.668C200.1 35.5 200.32 35.272 200.464 34.984C200.616 34.688 200.692 34.348 200.692 33.964C200.692 33.58 200.62 33.24 200.476 32.944C200.332 32.648 200.116 32.42 199.828 32.26C199.548 32.092 199.2 32.008 198.784 32.008C198.376 32.008 198.008 32.084 197.68 32.236C197.36 32.388 197.108 32.612 196.924 32.908C196.74 33.196 196.648 33.552 196.648 33.976C196.648 34.328 196.72 34.652 196.864 34.948C197.008 35.244 197.232 35.48 197.536 35.656C197.84 35.832 198.228 35.92 198.7 35.92Z" fill="#949497"/>
<path d="M185.21 36.688V30.28H186.122V33.028H185.978C185.978 32.396 186.062 31.864 186.23 31.432C186.406 30.992 186.67 30.66 187.022 30.436C187.374 30.204 187.818 30.088 188.354 30.088H188.402C189.21 30.088 189.806 30.34 190.19 30.844C190.582 31.348 190.778 32.076 190.778 33.028V36.688H189.626V32.788C189.626 32.292 189.486 31.896 189.206 31.6C188.926 31.296 188.542 31.144 188.054 31.144C187.55 31.144 187.142 31.3 186.83 31.612C186.518 31.924 186.362 32.34 186.362 32.86V36.688H185.21Z" fill="#949497"/>
<path d="M181.831 36.688V30.28H182.983V36.688H181.831ZM180.847 31.192V30.28H182.983V31.192H180.847ZM182.155 29.248C181.899 29.248 181.707 29.18 181.579 29.044C181.459 28.908 181.399 28.736 181.399 28.528C181.399 28.32 181.459 28.148 181.579 28.012C181.707 27.876 181.899 27.808 182.155 27.808C182.411 27.808 182.599 27.876 182.719 28.012C182.847 28.148 182.911 28.32 182.911 28.528C182.911 28.736 182.847 28.908 182.719 29.044C182.599 29.18 182.411 29.248 182.155 29.248Z" fill="#949497"/>
<path d="M171.112 36.688V30.28H172.024V33.028H171.88C171.88 32.396 171.964 31.864 172.132 31.432C172.308 30.992 172.572 30.66 172.924 30.436C173.276 30.204 173.72 30.088 174.256 30.088H174.304C175.112 30.088 175.708 30.34 176.092 30.844C176.484 31.348 176.68 32.076 176.68 33.028V36.688H175.528V32.788C175.528 32.292 175.388 31.896 175.108 31.6C174.828 31.296 174.444 31.144 173.956 31.144C173.452 31.144 173.044 31.3 172.732 31.612C172.42 31.924 172.264 32.34 172.264 32.86V36.688H171.112Z" fill="#949497"/>
<path d="M168.086 36.688V34.768H167.894V32.548C167.894 32.108 167.778 31.776 167.546 31.552C167.322 31.328 166.99 31.216 166.55 31.216C166.302 31.216 166.046 31.22 165.782 31.228C165.518 31.236 165.266 31.244 165.026 31.252C164.786 31.26 164.578 31.272 164.402 31.288V30.28C164.578 30.264 164.762 30.252 164.954 30.244C165.154 30.228 165.358 30.22 165.566 30.22C165.774 30.212 165.974 30.208 166.166 30.208C166.822 30.208 167.358 30.288 167.774 30.448C168.19 30.6 168.498 30.852 168.698 31.204C168.898 31.556 168.998 32.032 168.998 32.632V36.688H168.086ZM165.986 36.856C165.506 36.856 165.09 36.776 164.738 36.616C164.394 36.448 164.126 36.208 163.934 35.896C163.75 35.584 163.658 35.208 163.658 34.768C163.658 34.312 163.758 33.932 163.958 33.628C164.166 33.324 164.466 33.096 164.858 32.944C165.25 32.784 165.722 32.704 166.274 32.704H168.014V33.568H166.226C165.762 33.568 165.406 33.68 165.158 33.904C164.91 34.128 164.786 34.416 164.786 34.768C164.786 35.12 164.91 35.404 165.158 35.62C165.406 35.836 165.762 35.944 166.226 35.944C166.498 35.944 166.758 35.896 167.006 35.8C167.254 35.696 167.458 35.528 167.618 35.296C167.786 35.056 167.878 34.728 167.894 34.312L168.206 34.768C168.166 35.224 168.054 35.608 167.87 35.92C167.694 36.224 167.446 36.456 167.126 36.616C166.814 36.776 166.434 36.856 165.986 36.856Z" fill="#949497"/>
<path d="M159.681 36.904C159.129 36.904 158.649 36.808 158.241 36.616C157.841 36.424 157.509 36.168 157.245 35.848C156.981 35.52 156.781 35.16 156.645 34.768C156.517 34.376 156.453 33.984 156.453 33.592V33.376C156.453 32.968 156.517 32.568 156.645 32.176C156.781 31.784 156.981 31.432 157.245 31.12C157.517 30.8 157.853 30.544 158.253 30.352C158.653 30.16 159.121 30.064 159.657 30.064C160.193 30.064 160.673 30.164 161.097 30.364C161.529 30.564 161.873 30.848 162.129 31.216C162.393 31.576 162.541 32.004 162.573 32.5H161.469C161.413 32.1 161.229 31.768 160.917 31.504C160.605 31.232 160.185 31.096 159.657 31.096C159.201 31.096 158.821 31.2 158.517 31.408C158.213 31.616 157.985 31.9 157.833 32.26C157.681 32.62 157.605 33.028 157.605 33.484C157.605 33.924 157.681 34.328 157.833 34.696C157.985 35.056 158.213 35.344 158.517 35.56C158.829 35.768 159.217 35.872 159.681 35.872C160.041 35.872 160.353 35.808 160.617 35.68C160.881 35.552 161.093 35.38 161.253 35.164C161.413 34.948 161.509 34.704 161.541 34.432H162.645C162.621 34.936 162.473 35.372 162.201 35.74C161.937 36.108 161.585 36.396 161.145 36.604C160.713 36.804 160.225 36.904 159.681 36.904Z" fill="#949497"/>
<path d="M148.887 36.88C148.127 36.88 147.543 36.632 147.135 36.136C146.727 35.64 146.523 34.924 146.523 33.988V30.268H147.675V34.216C147.675 34.72 147.811 35.116 148.083 35.404C148.355 35.684 148.723 35.824 149.187 35.824C149.667 35.824 150.059 35.672 150.363 35.368C150.667 35.056 150.819 34.632 150.819 34.096V30.268H151.971V36.688H151.059V33.94H151.203C151.203 34.572 151.119 35.108 150.951 35.548C150.783 35.98 150.531 36.312 150.195 36.544C149.867 36.768 149.447 36.88 148.935 36.88H148.887Z" fill="#949497"/>
<path d="M141.51 36.904C140.95 36.904 140.458 36.808 140.034 36.616C139.61 36.424 139.25 36.172 138.954 35.86C138.666 35.54 138.446 35.184 138.294 34.792C138.15 34.4 138.078 34 138.078 33.592V33.376C138.078 32.968 138.154 32.568 138.306 32.176C138.458 31.776 138.682 31.42 138.978 31.108C139.274 30.788 139.634 30.536 140.058 30.352C140.482 30.16 140.966 30.064 141.51 30.064C142.054 30.064 142.538 30.16 142.962 30.352C143.386 30.536 143.746 30.788 144.042 31.108C144.338 31.42 144.562 31.776 144.714 32.176C144.866 32.568 144.942 32.968 144.942 33.376V33.592C144.942 34 144.866 34.4 144.714 34.792C144.57 35.184 144.35 35.54 144.054 35.86C143.766 36.172 143.41 36.424 142.986 36.616C142.562 36.808 142.07 36.904 141.51 36.904ZM141.51 35.872C141.99 35.872 142.398 35.768 142.734 35.56C143.078 35.344 143.338 35.056 143.514 34.696C143.698 34.336 143.79 33.932 143.79 33.484C143.79 33.028 143.698 32.62 143.514 32.26C143.33 31.9 143.066 31.616 142.722 31.408C142.386 31.2 141.982 31.096 141.51 31.096C141.046 31.096 140.642 31.2 140.298 31.408C139.954 31.616 139.69 31.9 139.506 32.26C139.322 32.62 139.23 33.028 139.23 33.484C139.23 33.932 139.318 34.336 139.494 34.696C139.678 35.056 139.938 35.344 140.274 35.56C140.618 35.768 141.03 35.872 141.51 35.872Z" fill="#949497"/>
<path d="M131.68 39.184V38.152H132.604C132.876 38.152 133.104 38.116 133.288 38.044C133.48 37.98 133.636 37.868 133.756 37.708C133.884 37.548 133.988 37.336 134.068 37.072L136.084 30.28H137.212L135.076 37.372C134.948 37.796 134.768 38.14 134.536 38.404C134.304 38.676 134.02 38.872 133.684 38.992C133.356 39.12 132.972 39.184 132.532 39.184H131.68ZM133.636 36.544V35.584H135.028V36.544H133.636ZM133.516 36.544L131.224 30.28H132.4L134.596 36.544H133.516Z" fill="#949497"/>
<path d="M125.048 36.88C124.208 36.88 123.556 36.7 123.092 36.34C122.636 35.98 122.4 35.488 122.384 34.864H123.464C123.48 35.112 123.604 35.348 123.836 35.572C124.076 35.788 124.48 35.896 125.048 35.896C125.56 35.896 125.952 35.796 126.224 35.596C126.496 35.388 126.632 35.136 126.632 34.84C126.632 34.576 126.532 34.372 126.332 34.228C126.132 34.076 125.808 33.976 125.36 33.928L124.664 33.856C124.056 33.792 123.56 33.612 123.176 33.316C122.792 33.012 122.6 32.588 122.6 32.044C122.6 31.636 122.704 31.288 122.912 31C123.12 30.704 123.408 30.48 123.776 30.328C124.144 30.168 124.568 30.088 125.048 30.088C125.768 30.088 126.352 30.248 126.8 30.568C127.248 30.888 127.48 31.364 127.496 31.996H126.416C126.408 31.74 126.288 31.524 126.056 31.348C125.832 31.164 125.496 31.072 125.048 31.072C124.6 31.072 124.26 31.164 124.028 31.348C123.796 31.532 123.68 31.764 123.68 32.044C123.68 32.284 123.76 32.476 123.92 32.62C124.088 32.764 124.36 32.856 124.736 32.896L125.432 32.968C126.12 33.04 126.672 33.232 127.088 33.544C127.504 33.848 127.712 34.28 127.712 34.84C127.712 35.24 127.596 35.596 127.364 35.908C127.14 36.212 126.828 36.452 126.428 36.628C126.028 36.796 125.568 36.88 125.048 36.88Z" fill="#949497"/>
<path d="M119.922 36.688V34.768H119.73V32.548C119.73 32.108 119.614 31.776 119.382 31.552C119.158 31.328 118.826 31.216 118.386 31.216C118.138 31.216 117.882 31.22 117.618 31.228C117.354 31.236 117.102 31.244 116.862 31.252C116.622 31.26 116.414 31.272 116.238 31.288V30.28C116.414 30.264 116.598 30.252 116.79 30.244C116.99 30.228 117.194 30.22 117.402 30.22C117.61 30.212 117.81 30.208 118.002 30.208C118.658 30.208 119.194 30.288 119.61 30.448C120.026 30.6 120.334 30.852 120.534 31.204C120.734 31.556 120.834 32.032 120.834 32.632V36.688H119.922ZM117.822 36.856C117.342 36.856 116.926 36.776 116.574 36.616C116.23 36.448 115.962 36.208 115.77 35.896C115.586 35.584 115.494 35.208 115.494 34.768C115.494 34.312 115.594 33.932 115.794 33.628C116.002 33.324 116.302 33.096 116.694 32.944C117.086 32.784 117.558 32.704 118.11 32.704H119.85V33.568H118.062C117.598 33.568 117.242 33.68 116.994 33.904C116.746 34.128 116.622 34.416 116.622 34.768C116.622 35.12 116.746 35.404 116.994 35.62C117.242 35.836 117.598 35.944 118.062 35.944C118.334 35.944 118.594 35.896 118.842 35.8C119.09 35.696 119.294 35.528 119.454 35.296C119.622 35.056 119.714 34.728 119.73 34.312L120.042 34.768C120.002 35.224 119.89 35.608 119.706 35.92C119.53 36.224 119.282 36.456 118.962 36.616C118.65 36.776 118.27 36.856 117.822 36.856Z" fill="#949497"/>
<path d="M110.702 36.76C110.222 36.76 109.806 36.692 109.454 36.556C109.11 36.42 108.842 36.188 108.65 35.86C108.466 35.524 108.374 35.072 108.374 34.504V28.336H109.478V34.648C109.478 34.992 109.57 35.26 109.754 35.452C109.946 35.636 110.214 35.728 110.558 35.728H111.686V36.76H110.702ZM107.27 31.144V30.28H111.686V31.144H107.27Z" fill="#949497"/>
<path d="M103.872 36.88C103.032 36.88 102.38 36.7 101.916 36.34C101.46 35.98 101.224 35.488 101.208 34.864H102.288C102.304 35.112 102.428 35.348 102.66 35.572C102.9 35.788 103.304 35.896 103.872 35.896C104.384 35.896 104.776 35.796 105.048 35.596C105.32 35.388 105.456 35.136 105.456 34.84C105.456 34.576 105.356 34.372 105.156 34.228C104.956 34.076 104.632 33.976 104.184 33.928L103.488 33.856C102.88 33.792 102.384 33.612 102 33.316C101.616 33.012 101.424 32.588 101.424 32.044C101.424 31.636 101.528 31.288 101.736 31C101.944 30.704 102.232 30.48 102.6 30.328C102.968 30.168 103.392 30.088 103.872 30.088C104.592 30.088 105.176 30.248 105.624 30.568C106.072 30.888 106.304 31.364 106.32 31.996H105.24C105.232 31.74 105.112 31.524 104.88 31.348C104.656 31.164 104.32 31.072 103.872 31.072C103.424 31.072 103.084 31.164 102.852 31.348C102.62 31.532 102.504 31.764 102.504 32.044C102.504 32.284 102.584 32.476 102.744 32.62C102.912 32.764 103.184 32.856 103.56 32.896L104.256 32.968C104.944 33.04 105.496 33.232 105.912 33.544C106.328 33.848 106.536 34.28 106.536 34.84C106.536 35.24 106.42 35.596 106.188 35.908C105.964 36.212 105.652 36.452 105.252 36.628C104.852 36.796 104.392 36.88 103.872 36.88Z" fill="#949497"/>
<path d="M98.7461 36.688V34.768H98.5541V32.548C98.5541 32.108 98.4381 31.776 98.2061 31.552C97.9821 31.328 97.6501 31.216 97.2101 31.216C96.9621 31.216 96.7061 31.22 96.4421 31.228C96.1781 31.236 95.9261 31.244 95.6861 31.252C95.4461 31.26 95.2381 31.272 95.0621 31.288V30.28C95.2381 30.264 95.4221 30.252 95.6141 30.244C95.8141 30.228 96.0181 30.22 96.2261 30.22C96.4341 30.212 96.6341 30.208 96.8261 30.208C97.4821 30.208 98.0181 30.288 98.4341 30.448C98.8501 30.6 99.1581 30.852 99.3581 31.204C99.5581 31.556 99.6581 32.032 99.6581 32.632V36.688H98.7461ZM96.6461 36.856C96.1661 36.856 95.7501 36.776 95.3981 36.616C95.0541 36.448 94.7861 36.208 94.5941 35.896C94.4101 35.584 94.3181 35.208 94.3181 34.768C94.3181 34.312 94.4181 33.932 94.6181 33.628C94.8261 33.324 95.1261 33.096 95.5181 32.944C95.9101 32.784 96.3821 32.704 96.9341 32.704H98.6741V33.568H96.8861C96.4221 33.568 96.0661 33.68 95.8181 33.904C95.5701 34.128 95.4461 34.416 95.4461 34.768C95.4461 35.12 95.5701 35.404 95.8181 35.62C96.0661 35.836 96.4221 35.944 96.8861 35.944C97.1581 35.944 97.4181 35.896 97.6661 35.8C97.9141 35.696 98.1181 35.528 98.2781 35.296C98.4461 35.056 98.5381 34.728 98.5541 34.312L98.8661 34.768C98.8261 35.224 98.7141 35.608 98.5301 35.92C98.3541 36.224 98.1061 36.456 97.7861 36.616C97.4741 36.776 97.0941 36.856 96.6461 36.856Z" fill="#949497"/>
<path d="M90.5147 36.688V29.956C90.5147 29.244 90.7027 28.72 91.0787 28.384C91.4547 28.048 92.0067 27.88 92.7347 27.88H93.5267V28.84H92.5427C92.2467 28.84 92.0187 28.924 91.8587 29.092C91.6987 29.252 91.6187 29.476 91.6187 29.764V36.688H90.5147ZM89.6267 31.216V30.352H93.6467V31.216H89.6267Z" fill="#949497"/>
<path d="M83.2826 36.88C82.4426 36.88 81.7906 36.7 81.3266 36.34C80.8706 35.98 80.6346 35.488 80.6186 34.864H81.6986C81.7146 35.112 81.8386 35.348 82.0706 35.572C82.3106 35.788 82.7146 35.896 83.2826 35.896C83.7946 35.896 84.1866 35.796 84.4586 35.596C84.7306 35.388 84.8666 35.136 84.8666 34.84C84.8666 34.576 84.7666 34.372 84.5666 34.228C84.3666 34.076 84.0426 33.976 83.5946 33.928L82.8986 33.856C82.2906 33.792 81.7946 33.612 81.4106 33.316C81.0266 33.012 80.8346 32.588 80.8346 32.044C80.8346 31.636 80.9386 31.288 81.1466 31C81.3546 30.704 81.6426 30.48 82.0106 30.328C82.3786 30.168 82.8026 30.088 83.2826 30.088C84.0026 30.088 84.5866 30.248 85.0346 30.568C85.4826 30.888 85.7146 31.364 85.7306 31.996H84.6506C84.6426 31.74 84.5226 31.524 84.2906 31.348C84.0666 31.164 83.7306 31.072 83.2826 31.072C82.8346 31.072 82.4946 31.164 82.2626 31.348C82.0306 31.532 81.9146 31.764 81.9146 32.044C81.9146 32.284 81.9946 32.476 82.1546 32.62C82.3226 32.764 82.5946 32.856 82.9706 32.896L83.6666 32.968C84.3546 33.04 84.9066 33.232 85.3226 33.544C85.7386 33.848 85.9466 34.28 85.9466 34.84C85.9466 35.24 85.8306 35.596 85.5986 35.908C85.3746 36.212 85.0626 36.452 84.6626 36.628C84.2626 36.796 83.8026 36.88 83.2826 36.88Z" fill="#949497"/>
<path d="M78.1563 36.688V34.768H77.9643V32.548C77.9643 32.108 77.8483 31.776 77.6163 31.552C77.3923 31.328 77.0603 31.216 76.6203 31.216C76.3723 31.216 76.1163 31.22 75.8523 31.228C75.5883 31.236 75.3363 31.244 75.0963 31.252C74.8563 31.26 74.6483 31.272 74.4723 31.288V30.28C74.6483 30.264 74.8323 30.252 75.0243 30.244C75.2243 30.228 75.4283 30.22 75.6363 30.22C75.8443 30.212 76.0443 30.208 76.2363 30.208C76.8923 30.208 77.4283 30.288 77.8443 30.448C78.2603 30.6 78.5683 30.852 78.7683 31.204C78.9683 31.556 79.0683 32.032 79.0683 32.632V36.688H78.1563ZM76.0563 36.856C75.5763 36.856 75.1603 36.776 74.8083 36.616C74.4643 36.448 74.1963 36.208 74.0043 35.896C73.8203 35.584 73.7283 35.208 73.7283 34.768C73.7283 34.312 73.8283 33.932 74.0283 33.628C74.2363 33.324 74.5363 33.096 74.9283 32.944C75.3203 32.784 75.7923 32.704 76.3443 32.704H78.0843V33.568H76.2963C75.8323 33.568 75.4763 33.68 75.2283 33.904C74.9803 34.128 74.8563 34.416 74.8563 34.768C74.8563 35.12 74.9803 35.404 75.2283 35.62C75.4763 35.836 75.8323 35.944 76.2963 35.944C76.5683 35.944 76.8283 35.896 77.0763 35.8C77.3243 35.696 77.5283 35.528 77.6883 35.296C77.8563 35.056 77.9483 34.728 77.9643 34.312L78.2763 34.768C78.2363 35.224 78.1243 35.608 77.9403 35.92C77.7643 36.224 77.5163 36.456 77.1963 36.616C76.8843 36.776 76.5043 36.856 76.0563 36.856Z" fill="#949497"/>
<path d="M66.9261 36.904C66.3661 36.904 65.8821 36.808 65.4741 36.616C65.0661 36.424 64.7341 36.172 64.4781 35.86C64.2221 35.54 64.0301 35.184 63.9021 34.792C63.7821 34.4 63.7221 34 63.7221 33.592V33.376C63.7221 32.96 63.7821 32.556 63.9021 32.164C64.0301 31.772 64.2221 31.42 64.4781 31.108C64.7341 30.788 65.0581 30.536 65.4501 30.352C65.8501 30.16 66.3181 30.064 66.8541 30.064C67.5501 30.064 68.1221 30.216 68.5701 30.52C69.0261 30.816 69.3621 31.2 69.5781 31.672C69.8021 32.144 69.9141 32.648 69.9141 33.184V33.7H64.2261V32.836H69.0741L68.8101 33.304C68.8101 32.848 68.7381 32.456 68.5941 32.128C68.4501 31.792 68.2341 31.532 67.9461 31.348C67.6581 31.164 67.2941 31.072 66.8541 31.072C66.3981 31.072 66.0181 31.176 65.7141 31.384C65.4181 31.592 65.1941 31.876 65.0421 32.236C64.8981 32.596 64.8261 33.012 64.8261 33.484C64.8261 33.94 64.8981 34.352 65.0421 34.72C65.1941 35.08 65.4261 35.368 65.7381 35.584C66.0501 35.792 66.4461 35.896 66.9261 35.896C67.4301 35.896 67.8381 35.784 68.1501 35.56C68.4701 35.336 68.6621 35.076 68.7261 34.78H69.8061C69.7181 35.22 69.5421 35.6 69.2781 35.92C69.0141 36.24 68.6821 36.484 68.2821 36.652C67.8821 36.82 67.4301 36.904 66.9261 36.904Z" fill="#949497"/>
<path d="M55.9287 39.088V30.28H56.8407V33.052L56.6247 33.028C56.6647 32.34 56.8087 31.78 57.0567 31.348C57.3127 30.908 57.6447 30.584 58.0527 30.376C58.4607 30.168 58.9047 30.064 59.3847 30.064C59.8487 30.064 60.2687 30.152 60.6447 30.328C61.0287 30.504 61.3567 30.744 61.6287 31.048C61.9007 31.352 62.1087 31.704 62.2527 32.104C62.3967 32.504 62.4687 32.928 62.4687 33.376V33.592C62.4687 34.04 62.3927 34.464 62.2407 34.864C62.0887 35.264 61.8727 35.616 61.5927 35.92C61.3207 36.224 60.9927 36.464 60.6087 36.64C60.2327 36.816 59.8167 36.904 59.3607 36.904C58.9047 36.904 58.4687 36.804 58.0527 36.604C57.6367 36.404 57.2927 36.08 57.0207 35.632C56.7487 35.184 56.5927 34.596 56.5527 33.868L57.0807 34.828V39.088H55.9287ZM59.1807 35.896C59.6127 35.896 59.9887 35.796 60.3087 35.596C60.6287 35.388 60.8767 35.104 61.0527 34.744C61.2287 34.376 61.3167 33.956 61.3167 33.484C61.3167 33.004 61.2287 32.584 61.0527 32.224C60.8767 31.864 60.6287 31.584 60.3087 31.384C59.9887 31.176 59.6127 31.072 59.1807 31.072C58.7967 31.072 58.4407 31.16 58.1127 31.336C57.7847 31.504 57.5207 31.752 57.3207 32.08C57.1287 32.4 57.0327 32.788 57.0327 33.244V33.796C57.0327 34.236 57.1327 34.612 57.3327 34.924C57.5327 35.236 57.7967 35.476 58.1247 35.644C58.4527 35.812 58.8047 35.896 59.1807 35.896Z" fill="#949497"/>
<path d="M48.9342 39.184V38.152H49.8582C50.1302 38.152 50.3582 38.116 50.5422 38.044C50.7342 37.98 50.8902 37.868 51.0102 37.708C51.1382 37.548 51.2422 37.336 51.3222 37.072L53.3382 30.28H54.4662L52.3302 37.372C52.2022 37.796 52.0222 38.14 51.7902 38.404C51.5582 38.676 51.2742 38.872 50.9382 38.992C50.6102 39.12 50.2262 39.184 49.7862 39.184H48.9342ZM50.8902 36.544V35.584H52.2822V36.544H50.8902ZM50.7702 36.544L48.4782 30.28H49.6542L51.8502 36.544H50.7702Z" fill="#949497"/>
<path d="M44.664 36.688V28.744H45.84V36.688H44.664ZM42 28.984V27.928H48.504V28.984H42Z" fill="#949497"/>
<defs>
<linearGradient id="paint0_linear_176_904" x1="5.5" y1="7.00001" x2="32.5" y2="38.5" gradientUnits="userSpaceOnUse">
<stop stop-color="#4CA6FF"/>
<stop offset="1" stop-color="#F4DC73"/>
</linearGradient>
</defs>
</svg>
