<svg width="80" height="80" viewBox="0 0 80 80" fill="none" xmlns="http://www.w3.org/2000/svg">
<path fill-rule="evenodd" clip-rule="evenodd" d="M29.5788 58.0033C32.5171 60.747 41.1863 56.2323 48.9443 47.9233C56.6987 39.614 60.607 30.6562 57.6687 27.9124C54.7303 25.1686 46.0577 29.6832 38.303 37.9923C30.5452 46.3017 26.6404 55.2597 29.5788 58.0033Z" stroke="#F4DC73" stroke-width="5" stroke-linecap="round" stroke-linejoin="round"/>
<path d="M10.6963 22.9167H10.7742M19.7008 57.1077H19.7786" stroke="#F4DC73" stroke-width="5" stroke-linecap="round" stroke-linejoin="round"/>
<path d="M58.1764 28.5677L69.8877 65.3464C70.4327 67.065 68.8694 68.7127 67.121 68.2554L30.6768 58.665" stroke="#F4DC73" stroke-width="5" stroke-linecap="round" stroke-linejoin="round"/>
<path d="M51.2109 64.0636C53.6239 62.3253 56.1343 60.0743 58.5473 57.5026C61.0866 54.7653 63.2109 51.9663 64.8196 49.362" stroke="#F4DC73" stroke-width="5" stroke-linecap="round" stroke-linejoin="round"/>
<path d="M21.4908 46.9367C21.4908 46.9367 15.3189 46.46 10 52.207" stroke="#F4DC73" stroke-width="5" stroke-linecap="round" stroke-linejoin="round"/>
<path fill-rule="evenodd" clip-rule="evenodd" d="M31.9077 19.9008C31.9077 22.0835 30.1369 23.8543 27.9542 23.8543C25.7715 23.8543 24.0039 22.0835 24.0039 19.9008C24.0039 17.7181 25.7715 15.9505 27.9542 15.9505C30.1369 15.9505 31.9077 17.7181 31.9077 19.9008Z" stroke="#F4DC73" stroke-width="5" stroke-linecap="round" stroke-linejoin="round"/>
<path d="M42.4383 42.269C42.4383 42.269 31.6189 31.1058 15.0459 35.8247" stroke="#F4DC73" stroke-width="5" stroke-linecap="round" stroke-linejoin="round"/>
<path d="M46.1693 11.6667C46.1693 11.6667 39.9037 20.2451 46.844 30.5586" stroke="#F4DC73" stroke-width="5" stroke-linecap="round" stroke-linejoin="round"/>
</svg>
